<svg width="701" height="179" viewBox="0 0 701 179" fill="none" xmlns="http://www.w3.org/2000/svg">
<mask id="path-1-outside-1_1237_2359" maskUnits="userSpaceOnUse" x="220.833" y="50.7112" width="480" height="77" fill="black">
<rect fill="white" x="220.833" y="50.7112" width="480" height="77"/>
<path d="M274.808 111.622L263.338 83.0362H252.174L270.211 125.327H279.077L299.893 75.4261H288.975L274.808 111.622Z"/>
<path d="M232.998 75.4261L254.243 125.327H243.245L221.833 75.4261H232.998Z"/>
<path d="M321.16 58.3043C321.16 60.1301 320.518 61.6855 319.232 62.9703C317.947 64.2551 316.391 64.8975 314.565 64.8975C312.739 64.8975 311.183 64.2551 309.897 62.9703C308.612 61.6855 307.97 60.1301 307.97 58.3043C307.97 56.4785 308.612 54.9232 309.897 53.6384C311.183 52.3536 312.739 51.7112 314.565 51.7112C316.391 51.7112 317.947 52.3536 319.232 53.6384C320.518 54.9232 321.16 56.4785 321.16 58.3043ZM319.232 75.4466V125.149H309.897V75.4466H319.232Z"/>
<path d="M370.425 111.354C370.425 115.682 368.531 119.333 364.743 122.309C360.955 125.284 356.186 126.772 350.436 126.772C345.431 126.772 341.034 125.487 337.246 122.917C333.458 120.28 330.752 116.831 329.128 112.571L337.449 109.021C338.666 111.996 340.425 114.329 342.725 116.02C345.092 117.643 347.663 118.454 350.436 118.454C353.413 118.454 355.882 117.812 357.843 116.527C359.873 115.242 360.887 113.721 360.887 111.963C360.887 108.784 358.452 106.451 353.582 104.964L345.059 102.834C335.385 100.399 330.549 95.7332 330.549 88.8358C330.549 84.3051 332.375 80.6873 336.028 77.9824C339.749 75.2099 344.484 73.8236 350.233 73.8236C354.63 73.8236 358.587 74.8718 362.105 76.9681C365.69 79.0644 368.193 81.8707 369.613 85.387L361.293 88.8358C360.346 86.7395 358.79 85.1166 356.626 83.967C354.529 82.7498 352.161 82.1412 349.523 82.1412C347.088 82.1412 344.889 82.7498 342.928 83.967C341.034 85.1842 340.087 86.6719 340.087 88.43C340.087 91.2702 342.759 93.2988 348.103 94.516L355.611 96.4433C365.487 98.8777 370.425 103.848 370.425 111.354Z"/>
<path d="M402.363 118.251C406.963 118.251 410.717 116.595 413.626 113.281C416.67 109.968 418.192 105.64 418.192 100.298C418.192 95.0908 416.67 90.7968 413.626 87.4157C410.65 84.0346 406.895 82.344 402.363 82.344C397.899 82.344 394.144 84.0346 391.1 87.4157C388.056 90.7968 386.534 95.0908 386.534 100.298C386.534 105.572 388.056 109.866 391.1 113.18C394.144 116.561 397.899 118.251 402.363 118.251ZM400.841 126.772C394.347 126.772 388.767 124.202 384.099 119.063C379.499 113.856 377.2 107.601 377.2 100.298C377.2 92.9945 379.499 86.7395 384.099 81.5326C388.767 76.3933 394.347 73.8236 400.841 73.8236C404.494 73.8236 407.808 74.6013 410.785 76.1566C413.829 77.7119 416.163 79.7744 417.786 82.344H418.192L417.786 75.4466V52.5227H427.121V125.149H418.192V118.251H417.786C416.163 120.821 413.829 122.884 410.785 124.439C407.808 125.994 404.494 126.772 400.841 126.772Z"/>
<path d="M436.161 100.298C436.161 92.6564 438.562 86.3338 443.365 81.3297C448.235 76.3257 454.357 73.8236 461.73 73.8236C469.103 73.8236 475.191 76.3257 479.994 81.3297C484.865 86.3338 487.3 92.6564 487.3 100.298C487.3 108.007 484.865 114.329 479.994 119.266C475.191 124.27 469.103 126.772 461.73 126.772C454.357 126.772 448.235 124.27 443.365 119.266C438.562 114.262 436.161 107.939 436.161 100.298ZM445.496 100.298C445.496 105.64 447.051 109.968 450.163 113.281C453.275 116.595 457.13 118.251 461.73 118.251C466.33 118.251 470.186 116.595 473.297 113.281C476.409 109.968 477.965 105.64 477.965 100.298C477.965 95.0232 476.409 90.7292 473.297 87.4157C470.118 84.0346 466.262 82.344 461.73 82.344C457.198 82.344 453.342 84.0346 450.163 87.4157C447.051 90.7292 445.496 95.0232 445.496 100.298Z"/>
<path d="M505.118 125.149H495.783V75.4466H504.712V82.344H505.118C506.539 79.9096 508.703 77.881 511.612 76.258C514.588 74.6351 517.531 73.8236 520.439 73.8236C524.092 73.8236 527.305 74.6689 530.079 76.3595C532.852 78.05 534.881 80.383 536.167 83.3584C540.293 77.0019 546.009 73.8236 553.314 73.8236C559.064 73.8236 563.495 75.5818 566.607 79.0982C569.718 82.6145 571.274 87.6186 571.274 94.1103V125.149H561.939V95.5304C561.939 90.8644 561.094 87.5171 559.402 85.4885C557.711 83.3922 554.87 82.344 550.879 82.344C547.294 82.344 544.284 83.8656 541.849 86.9086C539.414 89.9516 538.196 93.5355 538.196 97.6605V125.149H528.861V95.5304C528.861 90.8644 528.016 87.5171 526.324 85.4885C524.633 83.3922 521.792 82.344 517.801 82.344C514.216 82.344 511.206 83.8656 508.771 86.9086C506.336 89.9516 505.118 93.5355 505.118 97.6605V125.149Z"/>
<path d="M595.257 58.3043C595.257 60.1301 594.615 61.6855 593.329 62.9703C592.044 64.2551 590.488 64.8975 588.662 64.8975C586.835 64.8975 585.28 64.2551 583.994 62.9703C582.709 61.6855 582.067 60.1301 582.067 58.3043C582.067 56.4785 582.709 54.9232 583.994 53.6384C585.28 52.3536 586.835 51.7112 588.662 51.7112C590.488 51.7112 592.044 52.3536 593.329 53.6384C594.615 54.9232 595.257 56.4785 595.257 58.3043ZM593.329 75.4466V125.149H583.994V75.4466H593.329Z"/>
<path d="M644.522 111.354C644.522 115.682 642.628 119.333 638.84 122.309C635.052 125.284 630.283 126.772 624.533 126.772C619.528 126.772 615.131 125.487 611.343 122.917C607.555 120.28 604.849 116.831 603.225 112.571L611.546 109.021C612.763 111.996 614.522 114.329 616.822 116.02C619.189 117.643 621.76 118.454 624.533 118.454C627.51 118.454 629.979 117.812 631.94 116.527C633.97 115.242 634.984 113.721 634.984 111.963C634.984 108.784 632.549 106.451 627.679 104.964L619.156 102.834C609.482 100.399 604.646 95.7332 604.646 88.8358C604.646 84.3051 606.472 80.6873 610.125 77.9824C613.845 75.2099 618.581 73.8236 624.33 73.8236C628.727 73.8236 632.684 74.8718 636.202 76.9681C639.787 79.0644 642.29 81.8707 643.71 85.387L635.39 88.8358C634.443 86.7395 632.887 85.1166 630.723 83.967C628.626 82.7498 626.258 82.1412 623.62 82.1412C621.185 82.1412 618.986 82.7498 617.025 83.967C615.131 85.1842 614.184 86.6719 614.184 88.43C614.184 91.2702 616.856 93.2988 622.199 94.516L629.708 96.4433C639.584 98.8777 644.522 103.848 644.522 111.354Z"/>
<path d="M676.46 126.772C669.154 126.772 663.134 124.27 658.399 119.266C653.664 114.262 651.296 107.939 651.296 100.298C651.296 92.7241 653.596 86.4352 658.196 81.4311C662.796 76.3595 668.681 73.8236 675.851 73.8236C683.224 73.8236 689.076 76.2242 693.405 81.0254C697.802 85.759 700 92.4198 700 101.008L699.899 102.022H660.834C660.97 106.891 662.593 110.813 665.705 113.788C668.816 116.764 672.537 118.251 676.866 118.251C682.819 118.251 687.486 115.276 690.868 109.325L699.188 113.383C696.956 117.575 693.845 120.855 689.854 123.222C685.93 125.588 681.466 126.772 676.46 126.772ZM661.544 94.3132H690.056C689.786 90.8644 688.365 88.0243 685.795 85.7928C683.292 83.4936 679.91 82.344 675.648 82.344C672.131 82.344 669.087 83.426 666.516 85.5899C664.014 87.7538 662.356 90.6616 661.544 94.3132Z"/>
</mask>
<path d="M274.808 111.622L263.338 83.0362H252.174L270.211 125.327H279.077L299.893 75.4261H288.975L274.808 111.622Z" fill="white"/>
<path d="M232.998 75.4261L254.243 125.327H243.245L221.833 75.4261H232.998Z" fill="white"/>
<path d="M321.16 58.3043C321.16 60.1301 320.518 61.6855 319.232 62.9703C317.947 64.2551 316.391 64.8975 314.565 64.8975C312.739 64.8975 311.183 64.2551 309.897 62.9703C308.612 61.6855 307.97 60.1301 307.97 58.3043C307.97 56.4785 308.612 54.9232 309.897 53.6384C311.183 52.3536 312.739 51.7112 314.565 51.7112C316.391 51.7112 317.947 52.3536 319.232 53.6384C320.518 54.9232 321.16 56.4785 321.16 58.3043ZM319.232 75.4466V125.149H309.897V75.4466H319.232Z" fill="white"/>
<path d="M370.425 111.354C370.425 115.682 368.531 119.333 364.743 122.309C360.955 125.284 356.186 126.772 350.436 126.772C345.431 126.772 341.034 125.487 337.246 122.917C333.458 120.28 330.752 116.831 329.128 112.571L337.449 109.021C338.666 111.996 340.425 114.329 342.725 116.02C345.092 117.643 347.663 118.454 350.436 118.454C353.413 118.454 355.882 117.812 357.843 116.527C359.873 115.242 360.887 113.721 360.887 111.963C360.887 108.784 358.452 106.451 353.582 104.964L345.059 102.834C335.385 100.399 330.549 95.7332 330.549 88.8358C330.549 84.3051 332.375 80.6873 336.028 77.9824C339.749 75.2099 344.484 73.8236 350.233 73.8236C354.63 73.8236 358.587 74.8718 362.105 76.9681C365.69 79.0644 368.193 81.8707 369.613 85.387L361.293 88.8358C360.346 86.7395 358.79 85.1166 356.626 83.967C354.529 82.7498 352.161 82.1412 349.523 82.1412C347.088 82.1412 344.889 82.7498 342.928 83.967C341.034 85.1842 340.087 86.6719 340.087 88.43C340.087 91.2702 342.759 93.2988 348.103 94.516L355.611 96.4433C365.487 98.8777 370.425 103.848 370.425 111.354Z" fill="white"/>
<path d="M402.363 118.251C406.963 118.251 410.717 116.595 413.626 113.281C416.67 109.968 418.192 105.64 418.192 100.298C418.192 95.0908 416.67 90.7968 413.626 87.4157C410.65 84.0346 406.895 82.344 402.363 82.344C397.899 82.344 394.144 84.0346 391.1 87.4157C388.056 90.7968 386.534 95.0908 386.534 100.298C386.534 105.572 388.056 109.866 391.1 113.18C394.144 116.561 397.899 118.251 402.363 118.251ZM400.841 126.772C394.347 126.772 388.767 124.202 384.099 119.063C379.499 113.856 377.2 107.601 377.2 100.298C377.2 92.9945 379.499 86.7395 384.099 81.5326C388.767 76.3933 394.347 73.8236 400.841 73.8236C404.494 73.8236 407.808 74.6013 410.785 76.1566C413.829 77.7119 416.163 79.7744 417.786 82.344H418.192L417.786 75.4466V52.5227H427.121V125.149H418.192V118.251H417.786C416.163 120.821 413.829 122.884 410.785 124.439C407.808 125.994 404.494 126.772 400.841 126.772Z" fill="white"/>
<path d="M436.161 100.298C436.161 92.6564 438.562 86.3338 443.365 81.3297C448.235 76.3257 454.357 73.8236 461.73 73.8236C469.103 73.8236 475.191 76.3257 479.994 81.3297C484.865 86.3338 487.3 92.6564 487.3 100.298C487.3 108.007 484.865 114.329 479.994 119.266C475.191 124.27 469.103 126.772 461.73 126.772C454.357 126.772 448.235 124.27 443.365 119.266C438.562 114.262 436.161 107.939 436.161 100.298ZM445.496 100.298C445.496 105.64 447.051 109.968 450.163 113.281C453.275 116.595 457.13 118.251 461.73 118.251C466.33 118.251 470.186 116.595 473.297 113.281C476.409 109.968 477.965 105.64 477.965 100.298C477.965 95.0232 476.409 90.7292 473.297 87.4157C470.118 84.0346 466.262 82.344 461.73 82.344C457.198 82.344 453.342 84.0346 450.163 87.4157C447.051 90.7292 445.496 95.0232 445.496 100.298Z" fill="white"/>
<path d="M505.118 125.149H495.783V75.4466H504.712V82.344H505.118C506.539 79.9096 508.703 77.881 511.612 76.258C514.588 74.6351 517.531 73.8236 520.439 73.8236C524.092 73.8236 527.305 74.6689 530.079 76.3595C532.852 78.05 534.881 80.383 536.167 83.3584C540.293 77.0019 546.009 73.8236 553.314 73.8236C559.064 73.8236 563.495 75.5818 566.607 79.0982C569.718 82.6145 571.274 87.6186 571.274 94.1103V125.149H561.939V95.5304C561.939 90.8644 561.094 87.5171 559.402 85.4885C557.711 83.3922 554.87 82.344 550.879 82.344C547.294 82.344 544.284 83.8656 541.849 86.9086C539.414 89.9516 538.196 93.5355 538.196 97.6605V125.149H528.861V95.5304C528.861 90.8644 528.016 87.5171 526.324 85.4885C524.633 83.3922 521.792 82.344 517.801 82.344C514.216 82.344 511.206 83.8656 508.771 86.9086C506.336 89.9516 505.118 93.5355 505.118 97.6605V125.149Z" fill="white"/>
<path d="M595.257 58.3043C595.257 60.1301 594.615 61.6855 593.329 62.9703C592.044 64.2551 590.488 64.8975 588.662 64.8975C586.835 64.8975 585.28 64.2551 583.994 62.9703C582.709 61.6855 582.067 60.1301 582.067 58.3043C582.067 56.4785 582.709 54.9232 583.994 53.6384C585.28 52.3536 586.835 51.7112 588.662 51.7112C590.488 51.7112 592.044 52.3536 593.329 53.6384C594.615 54.9232 595.257 56.4785 595.257 58.3043ZM593.329 75.4466V125.149H583.994V75.4466H593.329Z" fill="white"/>
<path d="M644.522 111.354C644.522 115.682 642.628 119.333 638.84 122.309C635.052 125.284 630.283 126.772 624.533 126.772C619.528 126.772 615.131 125.487 611.343 122.917C607.555 120.28 604.849 116.831 603.225 112.571L611.546 109.021C612.763 111.996 614.522 114.329 616.822 116.02C619.189 117.643 621.76 118.454 624.533 118.454C627.51 118.454 629.979 117.812 631.94 116.527C633.97 115.242 634.984 113.721 634.984 111.963C634.984 108.784 632.549 106.451 627.679 104.964L619.156 102.834C609.482 100.399 604.646 95.7332 604.646 88.8358C604.646 84.3051 606.472 80.6873 610.125 77.9824C613.845 75.2099 618.581 73.8236 624.33 73.8236C628.727 73.8236 632.684 74.8718 636.202 76.9681C639.787 79.0644 642.29 81.8707 643.71 85.387L635.39 88.8358C634.443 86.7395 632.887 85.1166 630.723 83.967C628.626 82.7498 626.258 82.1412 623.62 82.1412C621.185 82.1412 618.986 82.7498 617.025 83.967C615.131 85.1842 614.184 86.6719 614.184 88.43C614.184 91.2702 616.856 93.2988 622.199 94.516L629.708 96.4433C639.584 98.8777 644.522 103.848 644.522 111.354Z" fill="white"/>
<path d="M676.46 126.772C669.154 126.772 663.134 124.27 658.399 119.266C653.664 114.262 651.296 107.939 651.296 100.298C651.296 92.7241 653.596 86.4352 658.196 81.4311C662.796 76.3595 668.681 73.8236 675.851 73.8236C683.224 73.8236 689.076 76.2242 693.405 81.0254C697.802 85.759 700 92.4198 700 101.008L699.899 102.022H660.834C660.97 106.891 662.593 110.813 665.705 113.788C668.816 116.764 672.537 118.251 676.866 118.251C682.819 118.251 687.486 115.276 690.868 109.325L699.188 113.383C696.956 117.575 693.845 120.855 689.854 123.222C685.93 125.588 681.466 126.772 676.46 126.772ZM661.544 94.3132H690.056C689.786 90.8644 688.365 88.0243 685.795 85.7928C683.292 83.4936 679.91 82.344 675.648 82.344C672.131 82.344 669.087 83.426 666.516 85.5899C664.014 87.7538 662.356 90.6616 661.544 94.3132Z" fill="white"/>
<path d="M274.808 111.622L263.338 83.0362H252.174L270.211 125.327H279.077L299.893 75.4261H288.975L274.808 111.622Z" stroke="white" mask="url(#path-1-outside-1_1237_2359)"/>
<path d="M232.998 75.4261L254.243 125.327H243.245L221.833 75.4261H232.998Z" stroke="white" mask="url(#path-1-outside-1_1237_2359)"/>
<path d="M321.16 58.3043C321.16 60.1301 320.518 61.6855 319.232 62.9703C317.947 64.2551 316.391 64.8975 314.565 64.8975C312.739 64.8975 311.183 64.2551 309.897 62.9703C308.612 61.6855 307.97 60.1301 307.97 58.3043C307.97 56.4785 308.612 54.9232 309.897 53.6384C311.183 52.3536 312.739 51.7112 314.565 51.7112C316.391 51.7112 317.947 52.3536 319.232 53.6384C320.518 54.9232 321.16 56.4785 321.16 58.3043ZM319.232 75.4466V125.149H309.897V75.4466H319.232Z" stroke="white" mask="url(#path-1-outside-1_1237_2359)"/>
<path d="M370.425 111.354C370.425 115.682 368.531 119.333 364.743 122.309C360.955 125.284 356.186 126.772 350.436 126.772C345.431 126.772 341.034 125.487 337.246 122.917C333.458 120.28 330.752 116.831 329.128 112.571L337.449 109.021C338.666 111.996 340.425 114.329 342.725 116.02C345.092 117.643 347.663 118.454 350.436 118.454C353.413 118.454 355.882 117.812 357.843 116.527C359.873 115.242 360.887 113.721 360.887 111.963C360.887 108.784 358.452 106.451 353.582 104.964L345.059 102.834C335.385 100.399 330.549 95.7332 330.549 88.8358C330.549 84.3051 332.375 80.6873 336.028 77.9824C339.749 75.2099 344.484 73.8236 350.233 73.8236C354.63 73.8236 358.587 74.8718 362.105 76.9681C365.69 79.0644 368.193 81.8707 369.613 85.387L361.293 88.8358C360.346 86.7395 358.79 85.1166 356.626 83.967C354.529 82.7498 352.161 82.1412 349.523 82.1412C347.088 82.1412 344.889 82.7498 342.928 83.967C341.034 85.1842 340.087 86.6719 340.087 88.43C340.087 91.2702 342.759 93.2988 348.103 94.516L355.611 96.4433C365.487 98.8777 370.425 103.848 370.425 111.354Z" stroke="white" mask="url(#path-1-outside-1_1237_2359)"/>
<path d="M402.363 118.251C406.963 118.251 410.717 116.595 413.626 113.281C416.67 109.968 418.192 105.64 418.192 100.298C418.192 95.0908 416.67 90.7968 413.626 87.4157C410.65 84.0346 406.895 82.344 402.363 82.344C397.899 82.344 394.144 84.0346 391.1 87.4157C388.056 90.7968 386.534 95.0908 386.534 100.298C386.534 105.572 388.056 109.866 391.1 113.18C394.144 116.561 397.899 118.251 402.363 118.251ZM400.841 126.772C394.347 126.772 388.767 124.202 384.099 119.063C379.499 113.856 377.2 107.601 377.2 100.298C377.2 92.9945 379.499 86.7395 384.099 81.5326C388.767 76.3933 394.347 73.8236 400.841 73.8236C404.494 73.8236 407.808 74.6013 410.785 76.1566C413.829 77.7119 416.163 79.7744 417.786 82.344H418.192L417.786 75.4466V52.5227H427.121V125.149H418.192V118.251H417.786C416.163 120.821 413.829 122.884 410.785 124.439C407.808 125.994 404.494 126.772 400.841 126.772Z" stroke="white" mask="url(#path-1-outside-1_1237_2359)"/>
<path d="M436.161 100.298C436.161 92.6564 438.562 86.3338 443.365 81.3297C448.235 76.3257 454.357 73.8236 461.73 73.8236C469.103 73.8236 475.191 76.3257 479.994 81.3297C484.865 86.3338 487.3 92.6564 487.3 100.298C487.3 108.007 484.865 114.329 479.994 119.266C475.191 124.27 469.103 126.772 461.73 126.772C454.357 126.772 448.235 124.27 443.365 119.266C438.562 114.262 436.161 107.939 436.161 100.298ZM445.496 100.298C445.496 105.64 447.051 109.968 450.163 113.281C453.275 116.595 457.13 118.251 461.73 118.251C466.33 118.251 470.186 116.595 473.297 113.281C476.409 109.968 477.965 105.64 477.965 100.298C477.965 95.0232 476.409 90.7292 473.297 87.4157C470.118 84.0346 466.262 82.344 461.73 82.344C457.198 82.344 453.342 84.0346 450.163 87.4157C447.051 90.7292 445.496 95.0232 445.496 100.298Z" stroke="white" mask="url(#path-1-outside-1_1237_2359)"/>
<path d="M505.118 125.149H495.783V75.4466H504.712V82.344H505.118C506.539 79.9096 508.703 77.881 511.612 76.258C514.588 74.6351 517.531 73.8236 520.439 73.8236C524.092 73.8236 527.305 74.6689 530.079 76.3595C532.852 78.05 534.881 80.383 536.167 83.3584C540.293 77.0019 546.009 73.8236 553.314 73.8236C559.064 73.8236 563.495 75.5818 566.607 79.0982C569.718 82.6145 571.274 87.6186 571.274 94.1103V125.149H561.939V95.5304C561.939 90.8644 561.094 87.5171 559.402 85.4885C557.711 83.3922 554.87 82.344 550.879 82.344C547.294 82.344 544.284 83.8656 541.849 86.9086C539.414 89.9516 538.196 93.5355 538.196 97.6605V125.149H528.861V95.5304C528.861 90.8644 528.016 87.5171 526.324 85.4885C524.633 83.3922 521.792 82.344 517.801 82.344C514.216 82.344 511.206 83.8656 508.771 86.9086C506.336 89.9516 505.118 93.5355 505.118 97.6605V125.149Z" stroke="white" mask="url(#path-1-outside-1_1237_2359)"/>
<path d="M595.257 58.3043C595.257 60.1301 594.615 61.6855 593.329 62.9703C592.044 64.2551 590.488 64.8975 588.662 64.8975C586.835 64.8975 585.28 64.2551 583.994 62.9703C582.709 61.6855 582.067 60.1301 582.067 58.3043C582.067 56.4785 582.709 54.9232 583.994 53.6384C585.28 52.3536 586.835 51.7112 588.662 51.7112C590.488 51.7112 592.044 52.3536 593.329 53.6384C594.615 54.9232 595.257 56.4785 595.257 58.3043ZM593.329 75.4466V125.149H583.994V75.4466H593.329Z" stroke="white" mask="url(#path-1-outside-1_1237_2359)"/>
<path d="M644.522 111.354C644.522 115.682 642.628 119.333 638.84 122.309C635.052 125.284 630.283 126.772 624.533 126.772C619.528 126.772 615.131 125.487 611.343 122.917C607.555 120.28 604.849 116.831 603.225 112.571L611.546 109.021C612.763 111.996 614.522 114.329 616.822 116.02C619.189 117.643 621.76 118.454 624.533 118.454C627.51 118.454 629.979 117.812 631.94 116.527C633.97 115.242 634.984 113.721 634.984 111.963C634.984 108.784 632.549 106.451 627.679 104.964L619.156 102.834C609.482 100.399 604.646 95.7332 604.646 88.8358C604.646 84.3051 606.472 80.6873 610.125 77.9824C613.845 75.2099 618.581 73.8236 624.33 73.8236C628.727 73.8236 632.684 74.8718 636.202 76.9681C639.787 79.0644 642.29 81.8707 643.71 85.387L635.39 88.8358C634.443 86.7395 632.887 85.1166 630.723 83.967C628.626 82.7498 626.258 82.1412 623.62 82.1412C621.185 82.1412 618.986 82.7498 617.025 83.967C615.131 85.1842 614.184 86.6719 614.184 88.43C614.184 91.2702 616.856 93.2988 622.199 94.516L629.708 96.4433C639.584 98.8777 644.522 103.848 644.522 111.354Z" stroke="white" mask="url(#path-1-outside-1_1237_2359)"/>
<path d="M676.46 126.772C669.154 126.772 663.134 124.27 658.399 119.266C653.664 114.262 651.296 107.939 651.296 100.298C651.296 92.7241 653.596 86.4352 658.196 81.4311C662.796 76.3595 668.681 73.8236 675.851 73.8236C683.224 73.8236 689.076 76.2242 693.405 81.0254C697.802 85.759 700 92.4198 700 101.008L699.899 102.022H660.834C660.97 106.891 662.593 110.813 665.705 113.788C668.816 116.764 672.537 118.251 676.866 118.251C682.819 118.251 687.486 115.276 690.868 109.325L699.188 113.383C696.956 117.575 693.845 120.855 689.854 123.222C685.93 125.588 681.466 126.772 676.46 126.772ZM661.544 94.3132H690.056C689.786 90.8644 688.365 88.0243 685.795 85.7928C683.292 83.4936 679.91 82.344 675.648 82.344C672.131 82.344 669.087 83.426 666.516 85.5899C664.014 87.7538 662.356 90.6616 661.544 94.3132Z" stroke="white" mask="url(#path-1-outside-1_1237_2359)"/>
<path opacity="0.65" fill-rule="evenodd" clip-rule="evenodd" d="M89.3762 178.584C138.676 178.584 178.642 138.631 178.642 89.3472C178.642 40.063 138.676 0.11018 89.3762 0.110176C40.076 0.110172 0.110318 40.0629 0.110314 89.3472C0.110309 138.631 40.076 178.584 89.3762 178.584ZM120.711 36.6449C128.092 34.0071 136.35 31.0563 142.323 37.0272C148.295 42.9982 145.344 51.2527 142.705 58.6315C142.576 58.9912 142.449 59.3487 142.322 59.7038C141.519 61.9665 140.349 64.8128 139.098 67.8522C136.127 75.0768 132.706 83.3927 132.706 87.5566C132.706 93.4722 139.364 112.452 142.076 119.107C144.788 125.762 148.217 135.645 141.953 141.906C135.689 148.168 125.803 144.741 119.145 142.03C112.488 139.318 93.5027 132.663 87.5852 132.663C83.42 132.663 75.1014 136.083 67.8745 139.053C64.834 140.303 61.9868 141.473 59.7234 142.276C59.3682 142.402 59.0105 142.53 58.6508 142.659C51.2695 145.296 43.0123 148.247 37.0394 142.276C31.0665 136.305 34.0183 128.051 36.6569 120.672C36.7855 120.312 36.9134 119.955 37.0394 119.6C37.8426 117.337 39.0133 114.491 40.2635 111.451C43.235 104.227 46.6554 95.9107 46.6554 91.7468C46.6554 85.8312 39.9982 66.8519 37.286 60.1968C34.5738 53.5417 31.1453 43.6589 37.4093 37.3969C43.6733 31.135 53.5593 34.5624 60.2165 37.2737C66.8737 39.985 85.8592 46.6401 91.7768 46.6401C95.942 46.6401 104.261 43.2208 111.488 40.2502C114.528 39.0004 117.375 37.8301 119.639 37.0272C119.994 36.9012 120.351 36.7734 120.711 36.6449Z" fill="url(#paint0_linear_1237_2359)"/>
<path opacity="0.65" fill-rule="evenodd" clip-rule="evenodd" d="M152.497 26.2471C117.636 -8.60215 61.1162 -8.60216 26.2557 26.2471C-8.6048 61.0963 -8.60481 117.598 26.2557 152.447C61.1162 187.297 117.636 187.297 152.497 152.447C187.357 117.598 187.357 61.0963 152.497 26.2471ZM29.9408 104.463C22.8557 101.111 14.9297 97.3606 14.9297 88.9164C14.9297 80.4722 22.8557 76.7219 29.9407 73.3695C30.286 73.2061 30.6294 73.0436 30.9697 72.8816C33.1381 71.8494 35.9792 70.6643 39.0131 69.3988C46.2245 66.3908 54.5252 62.9284 57.4705 59.9841C61.6548 55.8011 70.3722 37.6748 73.1617 31.0518C75.9513 24.4287 80.5174 15.017 89.3761 15.017C98.2347 15.017 102.801 24.4287 105.59 31.0518C108.38 37.6748 117.097 55.8011 121.282 59.9841C124.227 62.9284 132.528 66.3908 139.739 69.3989C142.773 70.6643 145.614 71.8494 147.782 72.8817C148.123 73.0437 148.466 73.2061 148.811 73.3695C155.896 76.7219 163.822 80.4722 163.822 88.9164C163.822 97.3606 155.896 101.111 148.811 104.463C148.466 104.627 148.123 104.789 147.782 104.951C145.614 105.983 142.773 107.169 139.739 108.434C132.528 111.442 124.227 114.904 121.282 117.849C117.097 122.032 108.38 140.158 105.59 146.781C102.801 153.404 98.2347 162.816 89.376 162.816C80.5174 162.816 75.9513 153.404 73.1617 146.781C70.3722 140.158 61.6548 122.032 57.4705 117.849C54.5252 114.904 46.2245 111.442 39.013 108.434C35.9791 107.169 33.1381 105.983 30.9697 104.951C30.6294 104.789 30.2861 104.627 29.9408 104.463Z" fill="url(#paint1_linear_1237_2359)"/>
<defs>
<linearGradient id="paint0_linear_1237_2359" x1="183.403" y1="0.11019" x2="-1.78624" y2="176.594" gradientUnits="userSpaceOnUse">
<stop stop-color="#00A3FF"/>
<stop offset="1" stop-color="#FF00C7"/>
</linearGradient>
<linearGradient id="paint1_linear_1237_2359" x1="194.353" y1="0.110112" x2="-15.7105" y2="10.9418" gradientUnits="userSpaceOnUse">
<stop stop-color="#00FFF0"/>
<stop offset="0.0001" stop-color="#13DEF2"/>
<stop offset="0.855974" stop-color="#E26CFF"/>
</linearGradient>
</defs>
</svg>
